<svg xmlns="http://www.w3.org/2000/svg" xmlns:svg="http://www.w3.org/2000/svg" id="svg2" width="150" height="150" version="1.1"><metadata id="metadata8"/><path id="path3868" fill="#000" stroke="#000" stroke-dasharray="none" stroke-miterlimit="4" stroke-opacity="1" stroke-width=".555"/><path id="path3870" fill="#000" stroke="#000" stroke-dasharray="none" stroke-miterlimit="4" stroke-opacity="1" stroke-width=".555"/><path id="path3874" fill="#000" stroke="#000" stroke-dasharray="none" stroke-miterlimit="4" stroke-opacity="1" stroke-width=".555"/><path id="path3876" fill="#000" stroke="#000" stroke-dasharray="none" stroke-miterlimit="4" stroke-opacity="1" stroke-width=".555"/><path id="path3887-2-7-8" fill="#000" fill-opacity="1" stroke="#000" stroke-dasharray="none" stroke-miterlimit="4" stroke-opacity="1" stroke-width="1" d="m 157.23819,125.73066 a 68.250603,45.8923 0 1 1 -136.501206,0 68.250603,45.8923 0 1 1 136.501206,0 z" transform="matrix(0.9020413,-0.02113809,0,1.3148163,-5.8116619,-87.706182)"/><path id="path3887-2-6" fill="#fff" fill-opacity="1" stroke="#000" stroke-dasharray="none" stroke-miterlimit="4" stroke-opacity="1" stroke-width="1" d="m 157.23819,125.73066 a 68.250603,45.8923 0 1 1 -136.501206,0 68.250603,45.8923 0 1 1 136.501206,0 z" transform="matrix(0.85054856,-0.01990655,0,1.2382122,-1.0555935,-78.625756)"/><path id="path3910-53-4" fill="#000" stroke="#000" stroke-dasharray="none" stroke-miterlimit="4" stroke-opacity="1" stroke-width="1" d="m 37.752312,105.05677 a 7.8650646,7.6403489 0 1 1 -15.73013,0 7.8650646,7.6403489 0 1 1 15.73013,0 z" transform="matrix(1.4569768,0,0,1.3511332,87.049809,-87.253169)"/><path id="path3910-3-9-6" fill="#7cfc00" fill-opacity="1" stroke="#000" stroke-dasharray="none" stroke-miterlimit="4" stroke-opacity="1" stroke-width="1" d="m 37.752312,105.05677 a 7.8650646,7.6403489 0 1 1 -15.73013,0 7.8650646,7.6403489 0 1 1 15.73013,0 z" transform="matrix(1.2859881,0,0,1.1748178,92.525803,-69.008703)"/><path id="path3910-53-4-1" fill="#000" stroke="#000" stroke-dasharray="none" stroke-miterlimit="4" stroke-opacity="1" stroke-width="1" d="m 37.752312,105.05677 a 7.8650646,7.6403489 0 1 1 -15.73013,0 7.8650646,7.6403489 0 1 1 15.73013,0 z" transform="matrix(1.4569768,0,0,1.3511332,51.904542,-121.71045)"/><path id="path3910-3-9-6-1" fill="#7cfc00" fill-opacity="1" stroke="#000" stroke-dasharray="none" stroke-miterlimit="4" stroke-opacity="1" stroke-width="1" d="m 37.752312,105.05677 a 7.8650646,7.6403489 0 1 1 -15.73013,0 7.8650646,7.6403489 0 1 1 15.73013,0 z" transform="matrix(1.2859881,0,0,1.1748178,57.380536,-103.46599)"/><rect id="rect3016" width="6.719" height="54.905" x="-104.174" y="17.528" fill="#000" fill-opacity="1" transform="matrix(-0.99142019,-0.13071349,-0.377025,0.92620308,0,0)"/><rect id="rect3016-8" width="5.707" height="55.266" x="-112.854" y="-50.9" fill="#000" fill-opacity="1" transform="matrix(-0.68438155,-0.72912406,-0.92077084,0.3901039,0,0)"/></svg>