<svg xmlns="http://www.w3.org/2000/svg" xmlns:svg="http://www.w3.org/2000/svg" id="svg2" width="150" height="150" version="1.1"><metadata id="metadata8"/><path id="path3868" fill="#000" stroke="#000" stroke-dasharray="none" stroke-miterlimit="4" stroke-opacity="1" stroke-width=".449"/><path id="path3870" fill="#000" stroke="#000" stroke-dasharray="none" stroke-miterlimit="4" stroke-opacity="1" stroke-width=".449"/><path id="path3874" fill="#000" stroke="#000" stroke-dasharray="none" stroke-miterlimit="4" stroke-opacity="1" stroke-width=".449"/><path id="path3876" fill="#000" stroke="#000" stroke-dasharray="none" stroke-miterlimit="4" stroke-opacity="1" stroke-width=".449"/><path id="path3887-2-7" fill="#000" fill-opacity="1" stroke="#000" stroke-dasharray="none" stroke-miterlimit="4" stroke-opacity="1" stroke-width="1" d="m 157.23819,125.73066 a 68.250603,45.8923 0 1 1 -136.501206,0 68.250603,45.8923 0 1 1 136.501206,0 z" transform="matrix(0.34690136,-0.00863447,0,0.53707504,72.719368,39.20379)"/><path id="path3887-2" fill="#fff" stroke="#000" stroke-dasharray="none" stroke-miterlimit="4" stroke-opacity="1" stroke-width="1" d="m 157.23819,125.73066 a 68.250603,45.8923 0 1 1 -136.501206,0 68.250603,45.8923 0 1 1 136.501206,0 z" transform="matrix(0.30635729,-0.00766658,0,0.47687083,75.948072,46.940556)"/><path id="path3887-2-7-9" fill="#000" fill-opacity="1" stroke="#000" stroke-dasharray="none" stroke-miterlimit="4" stroke-opacity="1" stroke-width="1" d="m 157.23819,125.73066 a 68.250603,45.8923 0 1 1 -136.501206,0 68.250603,45.8923 0 1 1 136.501206,0 z" transform="matrix(0.36756327,-0.00982665,0,0.61122953,5.9978191,24.895847)"/><path id="path3887-2-75" fill="#fff" stroke="#000" stroke-dasharray="none" stroke-miterlimit="4" stroke-opacity="1" stroke-width="1" d="m 157.23819,125.73066 a 68.250603,45.8923 0 1 1 -136.501206,0 68.250603,45.8923 0 1 1 136.501206,0 z" transform="matrix(0.32952899,-0.00879399,0,0.54699709,9.5202551,32.809461)"/><path id="path3887-2-7-8" fill="#000" fill-opacity="1" stroke="#000" stroke-dasharray="none" stroke-miterlimit="4" stroke-opacity="1" stroke-width="1" d="m 157.23819,125.73066 a 68.250603,45.8923 0 1 1 -136.501206,0 68.250603,45.8923 0 1 1 136.501206,0 z" transform="matrix(0.3630862,-0.00929451,0,0.57813049,43.676025,-4.2281683)"/><path id="path3887-2-6" fill="#fff" stroke="#000" stroke-dasharray="none" stroke-miterlimit="4" stroke-opacity="1" stroke-width="1" d="m 157.23819,125.73066 a 68.250603,45.8923 0 1 1 -136.501206,0 68.250603,45.8923 0 1 1 136.501206,0 z" transform="matrix(0.32065054,-0.00819401,0,0.50967769,47.055365,4.5713912)"/><path id="path3910-53-4" fill="#000" stroke="#000" stroke-dasharray="none" stroke-miterlimit="4" stroke-opacity="1" stroke-width="1" d="m 37.752312,105.05677 a 7.8650646,7.6403489 0 1 1 -15.73013,0 7.8650646,7.6403489 0 1 1 15.73013,0 z" transform="matrix(1.17592,0,0,1.230277,41.585167,-60.986598)"/><path id="path3910-3-9-6" fill="#7cfc00" fill-opacity="1" stroke="#000" stroke-dasharray="none" stroke-miterlimit="4" stroke-opacity="1" stroke-width="1" d="m 37.752312,105.05677 a 7.8650646,7.6403489 0 1 1 -15.73013,0 7.8650646,7.6403489 0 1 1 15.73013,0 z" transform="matrix(1.0154558,0,0,0.97608483,46.475545,-34.424059)"/><path id="path3887-2-7-9-5" fill="#000" fill-opacity="1" stroke="#000" stroke-dasharray="none" stroke-miterlimit="4" stroke-opacity="1" stroke-width="1" d="m 157.23819,125.73066 a 68.250603,45.8923 0 1 1 -136.501206,0 68.250603,45.8923 0 1 1 136.501206,0 z" transform="matrix(0.36756327,-0.00982665,0,0.61122953,82.143826,-36.536184)"/><path id="path3887-2-75-1" fill="#fff" stroke="#000" stroke-dasharray="none" stroke-miterlimit="4" stroke-opacity="1" stroke-width="1" d="m 157.23819,125.73066 a 68.250603,45.8923 0 1 1 -136.501206,0 68.250603,45.8923 0 1 1 136.501206,0 z" transform="matrix(0.32952899,-0.00879399,0,0.54699709,85.666262,-28.62257)"/></svg>