<svg xmlns="http://www.w3.org/2000/svg" xmlns:svg="http://www.w3.org/2000/svg" id="svg2" width="150" height="150" version="1.1"><metadata id="metadata8"/><path id="path3868" fill="#000" stroke="#000" stroke-dasharray="none" stroke-miterlimit="4" stroke-opacity="1" stroke-width=".449"/><path id="path3870" fill="#000" stroke="#000" stroke-dasharray="none" stroke-miterlimit="4" stroke-opacity="1" stroke-width=".449"/><path id="path3874" fill="#000" stroke="#000" stroke-dasharray="none" stroke-miterlimit="4" stroke-opacity="1" stroke-width=".449"/><path id="path3876" fill="#000" stroke="#000" stroke-dasharray="none" stroke-miterlimit="4" stroke-opacity="1" stroke-width=".449"/><path id="path3887-2-7" fill="#000" fill-opacity="1" stroke="#000" stroke-dasharray="none" stroke-miterlimit="4" stroke-opacity="1" stroke-width="1" d="m 157.23819,125.73066 a 68.250603,45.8923 0 1 1 -136.501206,0 68.250603,45.8923 0 1 1 136.501206,0 z" transform="matrix(0.5492562,-0.01331395,0,0.82814436,33.004351,-17.98696)"/><path id="path3887-2" fill="#fff" stroke="#000" stroke-dasharray="none" stroke-miterlimit="4" stroke-opacity="1" stroke-width="1" d="m 157.23819,125.73066 a 68.250603,45.8923 0 1 1 -136.501206,0 68.250603,45.8923 0 1 1 136.501206,0 z" transform="matrix(0.48506193,-0.0118215,0,0.73531231,38.116426,-6.0572328)"/><path id="path3826-0" fill="#000" stroke="#000" stroke-linecap="butt" stroke-linejoin="miter" stroke-opacity="1" stroke-width="1.13" d="M 14.993664,134.59169 77.115821,2.4401361 78.886417,6.1781501 16.469168,137.70675 z"/><path id="path3826-0-8" fill="#000" stroke="#000" stroke-linecap="butt" stroke-linejoin="miter" stroke-opacity="1" stroke-width="1.064" d="M 18.061337,134.64043 142.91608,110.17606 141.00551,113.8556 16.469168,137.70675 z"/><path id="path3826-0-8-4" fill="#000" stroke="#000" stroke-linecap="butt" stroke-linejoin="miter" stroke-opacity="1" stroke-width=".999" d="M 80.314444,2.9974762 142.91608,110.17606 139.13197,109.50727 77.160986,2.4401361 z"/></svg>