<svg xmlns="http://www.w3.org/2000/svg" xmlns:svg="http://www.w3.org/2000/svg" id="svg2" width="150" height="150" version="1.1"><metadata id="metadata8"/><path id="path3826" fill="#000" stroke="#000" stroke-linecap="butt" stroke-linejoin="miter" stroke-opacity="1" stroke-width="1" d="M 27.415369,101.01188 94.83021,33.147608 97.526804,35.844202 29.66253,103.25904 z"/><path id="path3826-9" fill="#000" stroke="#000" stroke-linecap="butt" stroke-linejoin="miter" stroke-opacity="1" stroke-width="1" d="M 74.336942,8.585686 142.20121,76.00053 139.50462,78.69712 72.089783,10.832847 z"/><path id="path3868" fill="#000" stroke="#000" stroke-dasharray="none" stroke-miterlimit="4" stroke-opacity="1" stroke-width=".449"/><path id="path3870" fill="#000" stroke="#000" stroke-dasharray="none" stroke-miterlimit="4" stroke-opacity="1" stroke-width=".449"/><path id="path3874" fill="#000" stroke="#000" stroke-dasharray="none" stroke-miterlimit="4" stroke-opacity="1" stroke-width=".449"/><path id="path3876" fill="#000" stroke="#000" stroke-dasharray="none" stroke-miterlimit="4" stroke-opacity="1" stroke-width=".449"/><path id="path3887" fill="#000" stroke="#000" stroke-dasharray="none" stroke-miterlimit="4" stroke-opacity="1" stroke-width="1" d="m 119.54898,125.73066 a 30.561396,31.010826 0 1 1 -61.122789,0 30.561396,31.010826 0 1 1 61.122789,0 z" transform="translate(-8,-32)"/><path id="path3887-2" fill="#fff" stroke="#000" stroke-dasharray="none" stroke-miterlimit="4" stroke-opacity="1" stroke-width="1" d="m 119.54898,125.73066 a 30.561396,31.010826 0 1 1 -61.122789,0 30.561396,31.010826 0 1 1 61.122789,0 z" transform="matrix(0.94205088,-0.0151452,0,0.94205088,-1.9892698,-23.500957)"/><path id="path3910" fill="#000" stroke="#000" stroke-dasharray="none" stroke-miterlimit="4" stroke-opacity="1" stroke-width="1" d="m 37.752312,105.05677 a 7.8650646,7.6403489 0 1 1 -15.73013,0 7.8650646,7.6403489 0 1 1 15.73013,0 z" transform="matrix(1.3524998,0,0,1.2452204,-9.6139391,-29.784506)"/><path id="path3910-3" fill="#0f0" stroke="#000" stroke-dasharray="none" stroke-miterlimit="4" stroke-opacity="1" stroke-width="1" d="m 37.752312,105.05677 a 7.8650646,7.6403489 0 1 1 -15.73013,0 7.8650646,7.6403489 0 1 1 15.73013,0 z" transform="matrix(1.2985728,0,0,1.0812803,-7.5780709,-12.561491)"/><path id="path3910-5" fill="#000" stroke="#000" stroke-dasharray="none" stroke-miterlimit="4" stroke-opacity="1" stroke-width="1" d="m 37.752312,105.05677 a 7.8650646,7.6403489 0 1 1 -15.73013,0 7.8650646,7.6403489 0 1 1 15.73013,0 z" transform="matrix(1.3524998,0,0,1.2452204,57.217326,-96.885906)"/><path id="path3910-3-5" fill="#0f0" stroke="#000" stroke-dasharray="none" stroke-miterlimit="4" stroke-opacity="1" stroke-width="1" d="m 37.752312,105.05677 a 7.8650646,7.6403489 0 1 1 -15.73013,0 7.8650646,7.6403489 0 1 1 15.73013,0 z" transform="matrix(1.2985728,0,0,1.0812803,59.253194,-79.662886)"/></svg>