<svg xmlns="http://www.w3.org/2000/svg" xmlns:svg="http://www.w3.org/2000/svg" id="svg2" width="256" height="256" version="1.1" viewBox="0 0 256 256"><defs id="defs4"><marker id="Arrow2Lend" orient="auto" overflow="visible" refX="0" refY="0"><path id="path4196" fill="#000" fill-opacity="1" fill-rule="evenodd" stroke="#000" stroke-linejoin="round" stroke-opacity="1" stroke-width=".625" d="M 8.7185878,4.0337352 L -2.2072895,0.016013256 L 8.7185884,-4.0017078 C 6.9730900,-1.6296469 6.9831476,1.6157441 8.7185878,4.0337352 z" transform="scale(1.1) rotate(180) translate(1,0)"/></marker><marker id="Arrow2Lstart" orient="auto" overflow="visible" refX="0" refY="0"><path id="path4193" fill="#000" fill-opacity="1" fill-rule="evenodd" stroke="#000" stroke-linejoin="round" stroke-opacity="1" stroke-width=".625" d="M 8.7185878,4.0337352 L -2.2072895,0.016013256 L 8.7185884,-4.0017078 C 6.9730900,-1.6296469 6.9831476,1.6157441 8.7185878,4.0337352 z" transform="scale(1.1) translate(1,0)"/></marker><marker id="Arrow1Mstart" orient="auto" overflow="visible" refX="0" refY="0"><path id="path4181" fill="#000" fill-opacity="1" fill-rule="evenodd" stroke="#000" stroke-opacity="1" stroke-width="1pt" d="M 0.0,0.0 L 5.0,-5.0 L -12.5,0.0 L 5.0,5.0 L 0.0,0.0 z" transform="scale(0.4) translate(10,0)"/></marker></defs><metadata id="metadata7"/><g id="g4165"><circle id="path4146" cx="60" cy="188" r="24" fill="#00ff7f" fill-opacity="1" stroke="#000" stroke-dasharray="none" stroke-dashoffset="6" stroke-linecap="butt" stroke-linejoin="bevel" stroke-miterlimit="4" stroke-opacity="1" stroke-width="8" opacity=".98"/><path id="path4163" fill="none" fill-rule="evenodd" stroke="#000" stroke-dasharray="none" stroke-dashoffset="8" stroke-linecap="butt" stroke-linejoin="miter" stroke-miterlimit="4" stroke-opacity="1" stroke-width="8" d="m 16,188 224,0"/><path id="path5049" fill="none" fill-rule="evenodd" stroke="#000" stroke-dasharray="none" stroke-dashoffset="8" stroke-linecap="butt" stroke-linejoin="miter" stroke-miterlimit="4" stroke-opacity="1" stroke-width="8" d="M 24,224 192,56"/><text id="text4441" x="44.865" y="123.436" fill="#000" fill-opacity="1" stroke="none" stroke-linecap="butt" stroke-linejoin="miter" stroke-opacity="1" stroke-width="1" font-family="Cordia New" font-size="121.511" font-stretch="normal" font-style="normal" font-variant="normal" font-weight="normal" letter-spacing="0" transform="scale(1.0132811,0.98689297)" word-spacing="0" xml:space="preserve" style="line-height:125%;-inkscape-font-specification:'Cordia New'"><tspan id="tspan4443" x="44.865" y="123.436">?</tspan></text><g id="text5035" fill="#000" fill-opacity="1" stroke="none" stroke-linecap="butt" stroke-linejoin="miter" stroke-opacity="1" stroke-width="1" font-family="Mael" font-size="80" font-stretch="normal" font-style="normal" font-variant="normal" font-weight="normal" letter-spacing="0" text-anchor="start" transform="scale(1.0132811,0.98689297)" word-spacing="0" writing-mode="lr-tb" style="line-height:100%;-inkscape-font-specification:'Mael, Normal';text-align:start"><path id="path4829" d="m 162.09168,162.74629 q 5.04,0 8.48,-4 3.12,-3.6 3.68,-8.88 0.24,-2.24 0.24,-3.92 0,-18.08 -18.72,-17.92 -5.44,0.08 -8.4,6.88 -2.24,5.2 -2.24,11.52 0,8.16 6,12.64 4.96,3.68 10.96,3.68 z m 17.28,7.44 q -0.48,-1.92 -1.04,-7.36 -0.16,-1.12 -0.64,-5.92 -4.72,5.84 -11.6,9.52 -7.44,4 -14.48,4 -8.64,0 -13.44,-6.56 -4.32,-5.84 -4.32,-14.72 0,-9.84 6.56,-16.48 4.88,-4.96 15.52,-9.52 3.36,-1.44 7.44,-1.44 8.96,0 14.16,6.4 0.64,-2.32 1.6,-4.16 0.88,0.24 2,0.24 4.8,0 11.84,-2.96 -4.8,3.76 -4.8,19.04 0,2.56 0.16,7.68 0.24,5.12 0.24,7.68 0,5.52 0.96,8.24 1.6,4.56 6.08,6.08 l -16.24,0.24 z"/></g><path id="path5091" fill="none" fill-opacity="1" fill-rule="evenodd" stroke="#130000" stroke-dasharray="none" stroke-dashoffset="8" stroke-linecap="square" stroke-linejoin="miter" stroke-miterlimit="4" stroke-opacity="1" stroke-width="8" d="M 151.77223,56.935671 A 160,160 0 0 1 217.56924,215.78371"/></g></svg>