<svg xmlns="http://www.w3.org/2000/svg" xmlns:svg="http://www.w3.org/2000/svg" id="svg4295" width="256" height="256" version="1.1" viewBox="0 0 72.249 72.249"><metadata id="metadata4325"/><g id="g5993"><path id="path4789" fill="#000" fill-opacity="1" stroke="none" stroke-linecap="butt" stroke-linejoin="miter" stroke-opacity="1" stroke-width="1" d="m 22.655227,45.15556 -2.319239,0 0,-1.475879 q -0.310058,0.21084 -0.843359,0.595312 -0.520899,0.372071 -1.016992,0.595313 -0.582911,0.285254 -1.339454,0.471289 -0.756543,0.198437 -1.773535,0.198437 -1.872754,0 -3.175,-1.240234 -1.302246,-1.240235 -1.302246,-3.162598 0,-1.575098 0.669726,-2.542481 0.682129,-0.979785 1.934766,-1.53789 1.265039,-0.558106 3.038574,-0.756543 1.773536,-0.198438 3.80752,-0.297657 l 0,-0.359668 q 0,-0.79375 -0.285254,-1.314648 -0.272851,-0.520899 -0.79375,-0.818555 -0.496094,-0.285254 -1.190625,-0.384472 -0.694531,-0.09922 -1.451074,-0.09922 -0.917774,0 -2.046387,0.248047 -1.128613,0.235644 -2.331641,0.694531 l -0.124023,0 0,-2.368848 q 0.682129,-0.186035 1.971973,-0.409277 1.289843,-0.223242 2.54248,-0.223242 1.463477,0 2.542481,0.248046 1.091406,0.235645 1.885156,0.818555 0.781348,0.570508 1.190625,1.475879 0.409278,0.905371 0.409278,2.244825 l 0,9.400977 z m -2.319239,-3.410645 0,-3.857129 q -1.066601,0.06201 -2.517676,0.186035 -1.438672,0.124023 -2.282031,0.359668 -1.00459,0.285254 -1.624707,0.892969 -0.620117,0.595312 -0.620117,1.649512 0,1.190625 0.719336,1.79834 0.719336,0.595312 2.195215,0.595312 1.227832,0 2.244824,-0.471289 1.016992,-0.483691 1.885156,-1.153418 z" font-family="sans-serif" font-size="medium" font-style="normal" font-weight="normal" letter-spacing="0" word-spacing="0" style="line-height:125%"/><path id="path4791" fill="#000" fill-opacity="1" stroke="none" stroke-linecap="butt" stroke-linejoin="miter" stroke-opacity="1" stroke-width="1" d="m 46.134517,38.12343 q 0,1.736329 -0.496094,3.125391 -0.483691,1.389063 -1.314648,2.331641 -0.880567,0.979785 -1.934766,1.475879 -1.054199,0.483691 -2.319238,0.483691 -1.178223,0 -2.05879,-0.285254 -0.880566,-0.272851 -1.736328,-0.74414 l -0.148828,0.644922 -2.182813,0 0,-19.298048 2.331641,0 0,6.895703 q 0.979785,-0.806152 2.083594,-1.314648 1.103809,-0.520899 2.480469,-0.520899 2.455664,0 3.869531,1.885157 1.42627,1.885156 1.42627,5.320605 z m -2.406055,0.06201 q 0,-2.480469 -0.818554,-3.75791 -0.818555,-1.289844 -2.6417,-1.289844 -1.016992,0 -2.058789,0.446484 -1.041797,0.434082 -1.934766,1.128614 l 0,7.9375 q 0.992188,0.446485 1.699121,0.620117 0.719336,0.173633 1.624708,0.173633 1.934765,0 3.026172,-1.265039 1.103808,-1.277441 1.103808,-3.993555 z" font-family="sans-serif" font-size="medium" font-style="normal" font-weight="normal" letter-spacing="0" word-spacing="0" style="line-height:125%"/><path id="path4793" fill="#000" fill-opacity="1" stroke="none" stroke-linecap="butt" stroke-linejoin="miter" stroke-opacity="1" stroke-width="1" d="m 67.632738,44.287396 q -1.165821,0.558105 -2.22002,0.868164 -1.041797,0.310058 -2.22002,0.310058 -1.500683,0 -2.75332,-0.434082 -1.252637,-0.446484 -2.145606,-1.339453 -0.905371,-0.892969 -1.401465,-2.257227 -0.496093,-1.364258 -0.496093,-3.187402 0,-3.398243 1.860351,-5.333008 1.872754,-1.934766 4.936133,-1.934766 1.190626,0 2.331641,0.334863 1.153418,0.334864 2.108399,0.818555 l 0,2.59209 -0.124024,0 q -1.066601,-0.830957 -2.207617,-1.277441 -1.128613,-0.446485 -2.207617,-0.446485 -1.984375,0 -3.137793,1.339453 -1.141016,1.327051 -1.141016,3.906739 0,2.505273 1.116211,3.857129 1.128613,1.339453 3.162598,1.339453 0.706933,0 1.438672,-0.186035 0.731738,-0.186035 1.314648,-0.483691 0.508496,-0.26045 0.954981,-0.545704 0.446484,-0.297656 0.706933,-0.508496 l 0.124024,0 0,2.567286 z" font-family="sans-serif" font-size="medium" font-style="normal" font-weight="normal" letter-spacing="0" word-spacing="0" style="line-height:125%"/><circle id="path4146" cx="9.031" cy="45.156" r="3.387" fill="#00ff7f" fill-opacity="1" stroke="#000" stroke-dasharray="none" stroke-dashoffset="6" stroke-linecap="butt" stroke-linejoin="bevel" stroke-miterlimit="4" stroke-opacity="1" stroke-width="2.258" opacity=".98"/><path id="path5985" fill="none" fill-rule="evenodd" stroke="#000" stroke-dasharray="4.516 2.258 1.129 2.258" stroke-dashoffset="0" stroke-linecap="butt" stroke-linejoin="miter" stroke-miterlimit="4" stroke-opacity="1" stroke-width="2.258" d="m 25.964446,54.18667 1e-6,-38.382225"/><path id="path5987" fill="none" fill-rule="evenodd" stroke="#000" stroke-dasharray="4.516 2.258 1.129 2.258" stroke-dashoffset="0" stroke-linecap="butt" stroke-linejoin="miter" stroke-miterlimit="4" stroke-opacity="1" stroke-width="2.258" d="m 48.542225,54.18667 2e-6,-38.382225"/><circle id="circle5989" cx="31.609" cy="45.156" r="3.387" fill="#00ff7f" fill-opacity="1" stroke="#000" stroke-dasharray="none" stroke-dashoffset="6" stroke-linecap="butt" stroke-linejoin="bevel" stroke-miterlimit="4" stroke-opacity="1" stroke-width="2.258" opacity=".98"/><circle id="circle5991" cx="54.187" cy="45.156" r="3.387" fill="#00ff7f" fill-opacity="1" stroke="#000" stroke-dasharray="none" stroke-dashoffset="6" stroke-linecap="butt" stroke-linejoin="bevel" stroke-miterlimit="4" stroke-opacity="1" stroke-width="2.258" opacity=".98"/></g></svg>