<svg xmlns="http://www.w3.org/2000/svg" xmlns:svg="http://www.w3.org/2000/svg" id="svg4295" width="256" height="256" version="1.1" viewBox="0 0 72.249 72.249"><metadata id="metadata4325"/><g id="g5576"><g id="g4159" transform="translate(1.0037673e-5,-2.2577779)"><path id="path4161" fill="#fff" fill-rule="evenodd" stroke="#000" stroke-dasharray="none" stroke-linecap="square" stroke-linejoin="miter" stroke-miterlimit="4" stroke-opacity="1" stroke-width="2.258" d="m 7.9022231,64.346671 0,-47.413336 4.5155559,-4.515556 22.577779,-10e-7 6.773333,6.773334 0,45.155559 -33.8666679,0"/><path id="path4164" fill="#00ff7f" fill-opacity="1" fill-rule="evenodd" stroke="#000" stroke-dasharray="none" stroke-linecap="butt" stroke-linejoin="miter" stroke-miterlimit="4" stroke-opacity="1" stroke-width="0" d="m 10.160001,62.088893 0,-42.897781 3.386666,-3.386666 15.804446,0 4.515556,4.515555 0,41.768892 z"/></g><path id="path5271" fill="none" fill-rule="evenodd" stroke="#000" stroke-dasharray="none" stroke-linecap="butt" stroke-linejoin="miter" stroke-miterlimit="4" stroke-opacity="1" stroke-width="2.258" d="m 40.640003,10.160001 23.706668,0 10e-7,6.773334 0,45.155559 -19.191113,-1e-6"/><rect id="rect5560" width="38.382" height="18.062" x="20.32" y="18.062" fill="#fff" fill-opacity="1" fill-rule="nonzero" stroke="none" stroke-dasharray="none" stroke-dashoffset="15.2" stroke-linecap="square" stroke-linejoin="miter" stroke-miterlimit="4" stroke-opacity="1" stroke-width="8" opacity="1"/><path id="path4194" fill="#fff" fill-opacity="1" fill-rule="evenodd" stroke="#000" stroke-dasharray="none" stroke-linecap="butt" stroke-linejoin="miter" stroke-miterlimit="4" stroke-opacity="1" stroke-width="2.258" d="m 50.800003,46.28444 -20.320001,-11.28889 0,6.773334 -11.28889,0 0,9.031112 11.28889,0 0,6.773334 z"/><path id="path5567" fill="#000" fill-opacity="1" stroke="none" stroke-linecap="butt" stroke-linejoin="miter" stroke-opacity="1" stroke-width="1" d="m 31.602483,24.381118 q 0,0.903821 -0.319533,1.679829 -0.310403,0.766878 -0.876432,1.332907 -0.702972,0.702972 -1.66157,1.059023 -0.958598,0.346921 -2.419319,0.346921 l -1.807641,0 0,5.066875 -1.807642,0 0,-13.593832 3.688319,0 q 1.223354,0 2.072398,0.209979 0.849044,0.200849 1.506368,0.639065 0.776008,0.520382 1.195965,1.29639 0.429087,0.776008 0.429087,1.962843 z m -1.880678,0.04565 q 0,-0.702972 -0.246497,-1.223354 Q 29.228812,22.68303 28.726689,22.354368 28.288473,22.071354 27.722443,21.95267 27.165544,21.824857 26.30737,21.824857 l -1.789382,0 0,5.432055 1.524627,0 q 1.09554,0 1.780253,-0.19172 0.684713,-0.200849 1.113799,-0.629936 0.429087,-0.438216 0.602548,-0.922079 0.18259,-0.483864 0.18259,-1.086411 z" font-family="sans-serif" font-size="medium" font-style="normal" font-weight="normal" letter-spacing="0" word-spacing="0" style="line-height:125%"/><path id="path5569" fill="#000" fill-opacity="1" stroke="none" stroke-linecap="butt" stroke-linejoin="miter" stroke-opacity="1" stroke-width="1" d="m 45.479328,27.083451 q 0,1.853289 -0.812526,3.359658 -0.803396,1.506368 -2.145433,2.337153 -0.93121,0.575158 -2.081527,0.830784 -1.141188,0.255627 -3.012736,0.255627 l -3.432694,0 0,-13.593832 3.396176,0 q 1.990231,0 3.158808,0.292145 1.177706,0.283014 1.990232,0.785137 1.387684,0.867303 2.163692,2.309764 0.776008,1.442462 0.776008,3.423564 z m -1.889807,-0.02739 q 0,-1.597663 -0.5569,-2.693204 -0.5569,-1.09554 -1.66157,-1.725476 -0.803396,-0.456475 -1.707217,-0.629936 -0.903821,-0.18259 -2.163692,-0.18259 l -1.698088,0 0,10.4898 1.698088,0 q 1.305519,0 2.273246,-0.19172 0.976857,-0.191719 1.789383,-0.712101 1.013375,-0.648195 1.515497,-1.707217 0.511253,-1.059023 0.511253,-2.647556 z" font-family="sans-serif" font-size="medium" font-style="normal" font-weight="normal" letter-spacing="0" word-spacing="0" style="line-height:125%"/><path id="path5571" fill="#000" fill-opacity="1" stroke="none" stroke-linecap="butt" stroke-linejoin="miter" stroke-opacity="1" stroke-width="1" d="m 55.972299,21.879634 -6.874516,0 0,3.834392 5.906789,0 0,1.606792 -5.906789,0 0,6.545855 -1.807642,0 0,-13.593832 8.682158,0 0,1.606793 z" font-family="sans-serif" font-size="medium" font-style="normal" font-weight="normal" letter-spacing="0" word-spacing="0" style="line-height:125%"/></g></svg>