<svg xmlns="http://www.w3.org/2000/svg" xmlns:svg="http://www.w3.org/2000/svg" id="svg4295" width="256" height="256" version="1.1" viewBox="0 0 72.249 72.249"><metadata id="metadata4325"/><g id="g6596"><circle id="path6586" cx="50.8" cy="41.769" r="9.031" fill="#00ff7f" fill-opacity="1" fill-rule="nonzero" stroke="#000" stroke-dasharray="none" stroke-linecap="square" stroke-linejoin="miter" stroke-miterlimit="4" stroke-opacity="1" stroke-width="2.258" opacity="1"/><path id="path6588" fill="none" fill-rule="evenodd" stroke="#000" stroke-dasharray="none" stroke-linecap="butt" stroke-linejoin="miter" stroke-miterlimit="4" stroke-opacity="1" stroke-width="2.258" d="m 50.800005,60.960004 0,-38.382225"/><path id="path6590" fill="none" fill-rule="evenodd" stroke="#000" stroke-dasharray="none" stroke-linecap="butt" stroke-linejoin="miter" stroke-miterlimit="4" stroke-opacity="1" stroke-width="2.258" d="m 31.608891,41.768893 38.382225,0"/><g id="g4801" transform="translate(51.669486,0.73709656)"><path id="path4777" fill="#fff" fill-opacity="1" fill-rule="evenodd" stroke="#000" stroke-dasharray="none" stroke-linecap="butt" stroke-linejoin="miter" stroke-miterlimit="4" stroke-opacity="1" stroke-width="2.258" d="m -22.583328,66.172298 2.710705,-2.710711 3.879641,-0.843251 9.3034591,-9.288997 -1.5958442,-1.595901 11.1733096,-11.177552 -3.19298016,-3.19298 -11.17330934,11.177552 -7.983098,-7.983041 -9.303461,9.288995 -5.072179,5.072185 z"/><path id="path4779" fill="#fff" fill-opacity="1" fill-rule="evenodd" stroke="#000" stroke-dasharray="none" stroke-linecap="butt" stroke-linejoin="miter" stroke-miterlimit="4" stroke-opacity="1" stroke-width="2.258" d="m -7.4943526,44.542002 -7.9830964,-7.98304 -3.542213,3.542212"/><path id="path4799" fill="#fff" fill-opacity="1" fill-rule="nonzero" stroke="#000" stroke-dasharray="none" stroke-linecap="butt" stroke-linejoin="miter" stroke-miterlimit="4" stroke-opacity="1" stroke-width="0" d="m -51.870731,154.89543 -11.098778,-11.10409 4.063831,-4.06383 4.063832,-4.06384 11.108365,11.10837 11.108366,11.10837 -4.073419,4.05955 -4.073419,4.05956 -11.098778,-11.10409 z" opacity="1" transform="scale(0.28222224,0.28222224)"/></g><path id="path6592" fill="#000" fill-rule="evenodd" stroke="#000" stroke-dasharray="none" stroke-linecap="butt" stroke-linejoin="miter" stroke-miterlimit="4" stroke-opacity="1" stroke-width="2.258" d="m 7.9022228,37.312564 0,-20.379229 22.5777792,0 0,20.379229 z"/><path id="path6594" fill="none" fill-opacity="1" fill-rule="nonzero" stroke="#000" stroke-dasharray="none" stroke-linecap="square" stroke-linejoin="miter" stroke-miterlimit="4" stroke-opacity="1" stroke-width="2.258" d="m 11.28889,14.675403 a 7.9022226,7.9022226 0 0 1 7.902223,-7.902222 7.9022226,7.9022226 0 0 1 7.902222,7.902223" opacity="1"/></g></svg>