<svg xmlns="http://www.w3.org/2000/svg" xmlns:svg="http://www.w3.org/2000/svg" id="svg4295" width="80" height="80" version="1.1" viewBox="0 0 22.578 22.578"><metadata id="metadata4325"/><g id="g4712" transform="matrix(0.3125,0,0,0.3125,1.0644659,0.35572153)"><path id="path7993" fill="none" stroke="#000" stroke-dasharray="none" stroke-linecap="round" stroke-linejoin="miter" stroke-miterlimit="4" stroke-opacity="1" stroke-width="2.258" d="m 42.708182,15.230874 c 0,0 0.691055,-3.946196 -2.764219,-7.3286516 C 38.624973,6.6110293 36.470669,5.7663995 34.415525,5.6472523 31.509112,5.4787527 28.324066,6.3448424 26.122867,7.9022224 19.21232,14.103389 22.46533,20.3487 18.081707,24.818741 15.317487,27.637452 9.7721439,25.017476 5.6174114,21.43204"/><rect id="rect7975" width="33.867" height="47.413" x="25.964" y="16.933" fill="#fff" fill-opacity="1" fill-rule="nonzero" stroke="#000" stroke-dasharray="none" stroke-dashoffset="7.993" stroke-linecap="butt" stroke-linejoin="miter" stroke-miterlimit="4" stroke-opacity="1" stroke-width="2.258" opacity="1" rx="6.004" ry="6.004"/><path id="path7977" fill="none" fill-rule="evenodd" stroke="#000" stroke-dasharray="none" stroke-linecap="butt" stroke-linejoin="miter" stroke-miterlimit="4" stroke-opacity="1" stroke-width="2.258" d="m 25.964447,34.995553 33.866669,0"/><path id="path7981" fill="none" fill-rule="evenodd" stroke="#000" stroke-dasharray="none" stroke-linecap="butt" stroke-linejoin="miter" stroke-miterlimit="4" stroke-opacity="1" stroke-width="2.258" d="m 37.253339,34.995555 0,-18.062224"/><path id="path7983" fill="none" fill-rule="evenodd" stroke="#000" stroke-dasharray="none" stroke-linecap="butt" stroke-linejoin="miter" stroke-miterlimit="4" stroke-opacity="1" stroke-width="2.258" d="m 48.542219,34.995555 0,-18.062224"/><path id="path7985" fill="#00ff7f" fill-opacity="1" fill-rule="nonzero" stroke="#000" stroke-dasharray="none" stroke-dashoffset="28.32" stroke-linecap="butt" stroke-linejoin="miter" stroke-miterlimit="4" stroke-opacity="1" stroke-width="0" d="m 38.382773,25.936343 0,-7.83293 4.503009,0 4.503005,0 0,7.83293 0,7.832929 -4.503005,0 -4.503009,0 z" opacity="1"/></g></svg>