<svg xmlns="http://www.w3.org/2000/svg" xmlns:cc="http://web.resource.org/cc/" xmlns:svg="http://www.w3.org/2000/svg" id="svg4295" width="256" height="256" version="1.1" viewBox="0 0 72.249 72.249"><metadata id="metadata4325"/><g id="g8303"><g id="g8294"><path id="path4219" fill="none" fill-rule="evenodd" stroke="#00ff7f" stroke-dasharray="none" stroke-linecap="butt" stroke-linejoin="miter" stroke-miterlimit="4" stroke-opacity="1" stroke-width="2.258" d="M 26.409552,36.124449 L 45.839344,36.124449"/><path id="path4221" fill="#00ff7f" fill-rule="evenodd" stroke="#00ff7f" stroke-dasharray="none" stroke-linecap="butt" stroke-linejoin="miter" stroke-miterlimit="4" stroke-opacity="1" stroke-width="2.258" d="M 36.124448,26.409552 L 36.124448,45.839345"/><path id="path4226" fill="#00ff7f" fill-rule="evenodd" stroke="#000" stroke-dasharray="none" stroke-linecap="butt" stroke-linejoin="miter" stroke-miterlimit="4" stroke-opacity="1" stroke-width="0" d="M 27.623916,31.266996 L 20.337738,36.124447 L 27.623916,40.981899 L 27.623916,31.266996 z"/><path id="path4228" fill="#00ff7f" fill-rule="evenodd" stroke="#000" stroke-dasharray="none" stroke-linecap="butt" stroke-linejoin="miter" stroke-miterlimit="4" stroke-opacity="1" stroke-width="0" d="M 44.624976,31.266996 L 51.911153,36.124447 L 44.624976,40.981899 L 44.624976,31.266996 z"/><path id="path4230" fill="#00ff7f" fill-rule="evenodd" stroke="#000" stroke-dasharray="none" stroke-linecap="butt" stroke-linejoin="miter" stroke-miterlimit="4" stroke-opacity="1" stroke-width="0" d="M 40.981898,44.624977 L 36.124446,51.911155 L 31.266994,44.624977 L 40.981898,44.624977 z"/><path id="path4232" fill="#00ff7f" fill-rule="evenodd" stroke="#000" stroke-dasharray="none" stroke-linecap="butt" stroke-linejoin="miter" stroke-miterlimit="4" stroke-opacity="1" stroke-width="0" d="M 31.266994,27.623917 L 36.124446,20.33774 L 40.981898,27.623917 L 31.266994,27.623917 z"/><path id="path4248" fill="none" fill-rule="evenodd" stroke="#000" stroke-dasharray="none" stroke-linecap="butt" stroke-linejoin="miter" stroke-miterlimit="4" stroke-opacity="1" stroke-width="1.129" d="M 27.623913,31.267 L 27.623913,34.505299 L 34.505298,34.505299 L 34.505298,27.623914 L 31.266999,27.623914 L 36.124446,20.33774 L 40.981898,27.623917 L 37.743597,27.623917 L 37.743597,34.505299 L 44.624982,34.505299 L 44.624982,31.267 L 51.911155,36.124449 L 44.624976,40.981899 L 44.624976,37.743598 L 37.743597,37.743598 L 37.743597,44.624983 L 40.981896,44.624983 L 36.124448,51.911156 L 31.266994,44.624977 L 34.505298,44.624983 L 34.505298,37.743598 L 27.623913,37.743598 L 27.623913,40.981897 L 20.337738,36.124447 L 27.623913,31.267 z"/></g><g id="g8290" transform="translate(1.1288889,-1.1288889)"><path id="path5372" fill="none" fill-opacity="1" stroke="#000" stroke-dasharray="none" stroke-miterlimit="4" stroke-opacity="1" stroke-width="2.248" d="M 60.895494,37.543621 A 25.803175,25.803175 0 1 1 47.993908,15.197417" transform="matrix(1.0043123,0,0,1.0043123,-0.2480904,-0.4521848)"/><path id="path7319" fill="#000" fill-rule="evenodd" stroke="#000" stroke-dasharray="none" stroke-linecap="butt" stroke-linejoin="miter" stroke-miterlimit="4" stroke-opacity="1" stroke-width="0" d="M 50.305381,10.724445 L 54.186669,18.574208 L 45.447931,19.137799 L 50.305381,10.724445 z"/></g></g></svg>