<svg xmlns="http://www.w3.org/2000/svg" xmlns:cc="http://web.resource.org/cc/" xmlns:svg="http://www.w3.org/2000/svg" id="svg2" width="256" height="256" version="1.1" viewBox="0 0 256 256"><defs id="defs4"><marker id="Arrow2Lend" orient="auto" overflow="visible" refX="0" refY="0"><path id="path4196" fill="#000" fill-opacity="1" fill-rule="evenodd" stroke="#000" stroke-linejoin="round" stroke-opacity="1" stroke-width=".625" d="M 8.7185878,4.0337352 L -2.2072895,0.016013256 L 8.7185884,-4.0017078 C 6.9730900,-1.6296469 6.9831476,1.6157441 8.7185878,4.0337352 z" transform="scale(1.1) rotate(180) translate(1,0)"/></marker><marker id="Arrow2Lstart" orient="auto" overflow="visible" refX="0" refY="0"><path id="path4193" fill="#000" fill-opacity="1" fill-rule="evenodd" stroke="#000" stroke-linejoin="round" stroke-opacity="1" stroke-width=".625" d="M 8.7185878,4.0337352 L -2.2072895,0.016013256 L 8.7185884,-4.0017078 C 6.9730900,-1.6296469 6.9831476,1.6157441 8.7185878,4.0337352 z" transform="scale(1.1) translate(1,0)"/></marker><marker id="Arrow1Mstart" orient="auto" overflow="visible" refX="0" refY="0"><path id="path4181" fill="#000" fill-opacity="1" fill-rule="evenodd" stroke="#000" stroke-opacity="1" stroke-width="1pt" d="M 0.0,0.0 L 5.0,-5.0 L -12.5,0.0 L 5.0,5.0 L 0.0,0.0 z" transform="scale(0.4) translate(10,0)"/></marker></defs><metadata id="metadata7"/><g id="g8895"><path id="path4163" fill="none" fill-rule="evenodd" stroke="#000" stroke-dasharray="none" stroke-linecap="butt" stroke-linejoin="miter" stroke-miterlimit="4" stroke-opacity="1" stroke-width="8" d="M 72,184 L 184,72"/><circle id="path4146" cx="52" cy="180" r="24" fill="#00ff7f" fill-opacity="1" stroke="#000" stroke-dasharray="none" stroke-dashoffset="6" stroke-linecap="butt" stroke-linejoin="bevel" stroke-miterlimit="4" stroke-opacity="1" stroke-width="8" opacity=".98" transform="translate(8,16)"/><circle id="path4146-5" cx="204" cy="180" r="24" fill="#00ff7f" fill-opacity="1" stroke="#000" stroke-dasharray="none" stroke-dashoffset="6" stroke-linecap="butt" stroke-linejoin="bevel" stroke-miterlimit="4" stroke-opacity="1" stroke-width="8" opacity=".98" transform="translate(-8,-120)"/><g id="g8891" transform="matrix(0.7071068,-0.7071068,0.7071068,0.7071068,-59.965515,87.916738)"><path id="path4488" fill="#000" fill-rule="evenodd" stroke="none" stroke-dasharray="none" stroke-dashoffset="0" stroke-linecap="butt" stroke-linejoin="miter" stroke-miterlimit="4" stroke-opacity="1" stroke-width="1" marker-end="none" marker-mid="none" marker-start="none" d="M 80,132 C 80,121.33333 80,110.66667 80,100 C 79.999998,100 79.999997,100 79.999995,100 C 69.333332,105.33333 58.666668,110.66667 48.000005,116 C 48.000003,116 48.000002,116 48,116 C 58.666667,121.33333 69.333333,126.66667 80,132 z" color="#000" display="inline" enable-background="accumulate" overflow="visible" visibility="visible" style="marker:none"/><path id="path4194" fill="none" fill-rule="evenodd" stroke="#000" stroke-dasharray="none" stroke-linecap="butt" stroke-linejoin="miter" stroke-miterlimit="4" stroke-opacity="1" stroke-width="8" d="M 80,116 L 115.96021,116"/></g><g id="g8887" transform="matrix(0.7071068,-0.7071068,0.7071068,0.7071068,-29.102603,185.05383)"><path id="path4499" fill="#000" fill-rule="evenodd" stroke="none" stroke-dasharray="none" stroke-dashoffset="0" stroke-linecap="butt" stroke-linejoin="miter" stroke-miterlimit="4" stroke-opacity="1" stroke-width="1" marker-end="none" marker-mid="none" marker-start="none" d="M 176,100 C 176,110.66667 176,121.33333 176,132 C 176,132 176,132 176,132 C 186.66667,126.66667 197.33333,121.33333 208,116 C 208,116 208,116 208,116 C 197.33333,110.66667 186.66667,105.33333 176,100 z" color="#000" display="inline" enable-background="accumulate" overflow="visible" visibility="visible" style="marker:none"/><path id="path4197" fill="none" fill-rule="evenodd" stroke="#000" stroke-dasharray="none" stroke-linecap="butt" stroke-linejoin="miter" stroke-miterlimit="4" stroke-opacity="1" stroke-width="8" d="M 140.20142,116 L 176,116"/></g></g></svg>