<svg xmlns="http://www.w3.org/2000/svg" xmlns:svg="http://www.w3.org/2000/svg" id="svg4295" width="256" height="256" version="1.1" viewBox="0 0 72.249 72.249"><metadata id="metadata4325"/><g id="g4250"><g id="g4182"><path id="path4174" fill="#fff" fill-rule="evenodd" stroke="#000" stroke-dasharray="none" stroke-linecap="butt" stroke-linejoin="miter" stroke-miterlimit="4" stroke-opacity="1" stroke-width="2.258" d="m 10.160001,53.057781 0,-42.89778 51.928892,0 0,47.413336 -4.515556,4.515556 -38.382225,0 z"/><path id="path4176" fill="#00ff7f" fill-rule="evenodd" stroke="#000" stroke-dasharray="none" stroke-linecap="butt" stroke-linejoin="miter" stroke-miterlimit="4" stroke-opacity="1" stroke-width="2.258" d="m 19.191112,11.28889 0,19.191112 4.515556,4.515556 24.835557,0 4.515556,-4.515556 0,-19.191112"/><path id="path4178" fill="#00ff7f" fill-opacity="1" fill-rule="evenodd" stroke="#000" stroke-dasharray="none" stroke-linecap="butt" stroke-linejoin="miter" stroke-miterlimit="4" stroke-opacity="1" stroke-width="2.258" d="m 23.706668,60.960004 0,-14.675557 2.257778,-2.257778 20.320001,0 2.257778,2.257778 0,14.675557"/><path id="path4180" fill="#fff" fill-rule="evenodd" stroke="#000" stroke-dasharray="none" stroke-linecap="butt" stroke-linejoin="miter" stroke-miterlimit="4" stroke-opacity="1" stroke-width="2.258" d="m 28.222224,57.573337 0,-9.031112 4.515556,0 0,9.031112 z"/></g><g id="g4188"><path id="path4247-0" fill="none" fill-rule="evenodd" stroke="#000" stroke-dasharray="none" stroke-linecap="square" stroke-linejoin="miter" stroke-miterlimit="4" stroke-opacity="1" stroke-width="2.258" d="M 56.880353,43.248205 37.722475,24.090332 24.950556,17.704373 l 6.385959,12.771918 19.95612,19.956124 6.38596,-6.385961"/><path id="path4249-1" fill="#000" fill-rule="evenodd" stroke="#000" stroke-dasharray="none" stroke-linecap="butt" stroke-linejoin="miter" stroke-miterlimit="4" stroke-opacity="1" stroke-width="4.516" d="M 31.336515,24.090333 27.345291,20.099109"/><path id="path4251-0" fill="#000" fill-rule="evenodd" stroke="#000" stroke-dasharray="none" stroke-linecap="butt" stroke-linejoin="miter" stroke-miterlimit="4" stroke-opacity="1" stroke-width="2.258" d="M 32.933005,28.879801 52.121877,48.06868"/><path id="path4253-4" fill="#000" fill-rule="evenodd" stroke="#000" stroke-dasharray="none" stroke-linecap="butt" stroke-linejoin="miter" stroke-miterlimit="4" stroke-opacity="1" stroke-width="2.258" d="M 34.529496,27.283311 53.718368,46.47219"/><path id="path4255-7" fill="#000" fill-rule="evenodd" stroke="#fff" stroke-dasharray="none" stroke-linecap="butt" stroke-linejoin="miter" stroke-miterlimit="4" stroke-opacity="1" stroke-width="2.258" d="M 36.125986,25.68682 55.314858,44.875699"/><path id="path4186" fill="#fff" fill-opacity="1" fill-rule="evenodd" stroke="#000" stroke-dasharray="none" stroke-linecap="butt" stroke-linejoin="miter" stroke-miterlimit="4" stroke-opacity="1" stroke-width="0" d="m 30.03601,25.400002 2.137325,4.233333 4.707291,-4.692333 -4.261225,-2.187975 z"/></g></g></svg>