<svg xmlns="http://www.w3.org/2000/svg" xmlns:svg="http://www.w3.org/2000/svg" id="svg4295" width="256" height="256" version="1.1" viewBox="0 0 72.249 72.249"><metadata id="metadata4325"/><g id="g6383"><path id="path5733" fill="#000" fill-opacity="1" stroke="none" stroke-linecap="butt" stroke-linejoin="miter" stroke-opacity="1" stroke-width="1" d="m 12.233795,47.413345 -3.3388347,0 12.4929897,-36.115627 3.803176,0 12.448767,36.115627 -3.383057,0 -3.847399,-11.335741 -14.328243,0 -3.847399,11.335741 z m 17.070068,-14.585156 -6.10277,-18.132228 -6.014325,18.132228 12.117095,0 z" display="inline" font-family="AvantGarde Bk BT" font-size="medium" font-stretch="normal" font-style="normal" font-variant="normal" font-weight="normal" letter-spacing="0" text-anchor="start" word-spacing="0" writing-mode="lr-tb" style="line-height:125%;-inkscape-font-specification:'AvantGarde Bk BT, Normal';text-align:start"/><path id="path5735" fill="#000" fill-opacity="1" stroke="none" stroke-linecap="butt" stroke-linejoin="miter" stroke-opacity="1" stroke-width="1" d="m 43.742664,52.467991 c 0.471712,1.5875 1.32669,2.819468 2.564934,3.695897 1.238242,0.892971 2.741823,1.339455 4.510742,1.339455 2.771306,0 4.989827,-1.033528 6.655559,-3.100586 1.680473,-2.067058 2.520708,-7.65087 2.520708,-11.106989 l 0,-0.719337 c -1.17928,1.802475 -2.520711,3.166734 -4.024292,4.092776 -1.503578,0.909503 -3.161942,1.364257 -4.975081,1.364257 -3.655769,0 -6.692413,-1.36426 -9.109934,-4.092773 -2.417524,-2.745055 -3.626285,-6.159834 -3.626285,-10.244338 0,-4.01836 1.19402,-7.391798 3.582061,-10.120314 2.38804,-2.728515 5.34361,-4.092773 8.866709,-4.092773 2.048995,0 3.817913,0.413412 5.306754,1.240235 1.503582,0.826823 2.830272,2.116666 3.980068,3.869531 l 0,-4.464844 3.051387,0 0,22.770705 c 0,4.7625 -1.068722,11.305428 -3.206166,13.984332 -2.122704,2.678907 -5.056162,4.018359 -8.800373,4.018359 -2.756563,0 -5.122494,-0.768942 -7.097788,-2.306834 -1.975293,-1.521355 -3.250387,-3.563608 -3.825285,-6.126759 z M 41.575739,33.547525 c 0,3.191537 0.8992,5.862175 2.697602,8.011916 1.813139,2.149737 3.994807,3.224609 6.544999,3.224609 2.40278,0 4.525484,-1.074872 6.36811,-3.224609 1.842624,-2.166276 2.763935,-4.704625 2.763935,-7.615042 0,-3.108853 -0.906571,-5.762955 -2.719713,-7.962304 -1.813143,-2.199349 -3.950587,-3.299024 -6.412332,-3.299024 -2.535451,0 -4.709748,1.050065 -6.522887,3.150195 -1.813143,2.083595 -2.719714,4.655014 -2.719714,7.714259 z" display="inline" font-family="AvantGarde Bk BT" font-size="medium" font-stretch="normal" font-style="normal" font-variant="normal" font-weight="normal" letter-spacing="0" text-anchor="start" word-spacing="0" writing-mode="lr-tb" style="line-height:125%;-inkscape-font-specification:'AvantGarde Bk BT, Normal';text-align:start"/><path id="path5719" fill="none" fill-rule="evenodd" stroke="#000" stroke-dasharray="none" stroke-linecap="butt" stroke-linejoin="miter" stroke-miterlimit="4" stroke-opacity="1" stroke-width="2.258" d="m 62.088875,56.444395 0,-9.03109" display="inline"/><path id="path5725" fill="none" fill-rule="evenodd" stroke="#000" stroke-dasharray="none" stroke-linecap="butt" stroke-linejoin="miter" stroke-miterlimit="4" stroke-opacity="1" stroke-width="2.258" d="m 9.031115,59.831076 54.18667,0" display="inline"/><circle id="path5715" cx="62.089" cy="-59.831" r="3.951" fill="#00ff7f" fill-opacity="1" fill-rule="nonzero" stroke="#000" stroke-dasharray="none" stroke-dashoffset="28.32" stroke-linecap="square" stroke-linejoin="miter" stroke-miterlimit="4" stroke-opacity="1" stroke-width="1.129" display="inline" opacity="1" transform="scale(1,-1)"/></g></svg>