<svg xmlns="http://www.w3.org/2000/svg" xmlns:svg="http://www.w3.org/2000/svg" id="svg2" width="256" height="256" version="1.1" viewBox="0 0 256 256"><defs id="defs4"><marker id="Arrow2Lend" orient="auto" overflow="visible" refX="0" refY="0"><path id="path4196" fill="#000" fill-opacity="1" fill-rule="evenodd" stroke="#000" stroke-linejoin="round" stroke-opacity="1" stroke-width=".625" d="M 8.7185878,4.0337352 L -2.2072895,0.016013256 L 8.7185884,-4.0017078 C 6.9730900,-1.6296469 6.9831476,1.6157441 8.7185878,4.0337352 z" transform="scale(1.1) rotate(180) translate(1,0)"/></marker><marker id="Arrow2Lstart" orient="auto" overflow="visible" refX="0" refY="0"><path id="path4193" fill="#000" fill-opacity="1" fill-rule="evenodd" stroke="#000" stroke-linejoin="round" stroke-opacity="1" stroke-width=".625" d="M 8.7185878,4.0337352 L -2.2072895,0.016013256 L 8.7185884,-4.0017078 C 6.9730900,-1.6296469 6.9831476,1.6157441 8.7185878,4.0337352 z" transform="scale(1.1) translate(1,0)"/></marker><marker id="Arrow1Mstart" orient="auto" overflow="visible" refX="0" refY="0"><path id="path4181" fill="#000" fill-opacity="1" fill-rule="evenodd" stroke="#000" stroke-opacity="1" stroke-width="1pt" d="M 0.0,0.0 L 5.0,-5.0 L -12.5,0.0 L 5.0,5.0 L 0.0,0.0 z" transform="scale(0.4) translate(10,0)"/></marker></defs><metadata id="metadata7"/><g id="g4261"><g id="g4258"><path id="path5147" fill="none" fill-rule="evenodd" stroke="#000" stroke-dasharray="none" stroke-linecap="butt" stroke-linejoin="miter" stroke-miterlimit="4" stroke-opacity="1" stroke-width="16" d="M 32,184 92.209863,156.12172 164,188 220.23924,163.76076"/></g><circle id="path4146" cx="92" cy="156" r="16" fill="#00ff7f" fill-opacity="1" stroke="#000" stroke-dasharray="none" stroke-dashoffset="6" stroke-linecap="butt" stroke-linejoin="bevel" stroke-miterlimit="4" stroke-opacity="1" stroke-width="8" opacity=".98"/><circle id="path4146-5" cx="164" cy="188" r="16" fill="#00ff7f" fill-opacity="1" stroke="#000" stroke-dasharray="none" stroke-dashoffset="6" stroke-linecap="butt" stroke-linejoin="bevel" stroke-miterlimit="4" stroke-opacity="1" stroke-width="8" opacity=".98"/><text id="text4441" x="100.062" y="139.242" fill="#000" fill-opacity="1" stroke="none" stroke-linecap="butt" stroke-linejoin="miter" stroke-opacity="1" stroke-width="1" font-family="Cordia New" font-size="121.511" font-stretch="normal" font-style="normal" font-variant="normal" font-weight="normal" letter-spacing="0" transform="scale(1.0132811,0.98689297)" word-spacing="0" xml:space="preserve" style="line-height:125%;-inkscape-font-specification:'Cordia New'"><tspan id="tspan4443" x="100.062" y="139.242">?</tspan></text><g id="g4194"><path id="path4488" fill="#000" fill-rule="evenodd" stroke="none" stroke-dasharray="none" stroke-dashoffset="0" stroke-linecap="butt" stroke-linejoin="miter" stroke-miterlimit="4" stroke-opacity="1" stroke-width="1" d="m 63.761891,128.50092 -13.523785,-29.00184 -5e-6,0 -22.239946,28.02468 -5e-6,0 c 11.921243,0.32575 23.842498,0.65145 35.763741,0.97716 z" color="#000" display="inline" enable-background="accumulate" overflow="visible" visibility="visible" style="marker:none"/><path id="path4170" fill="none" fill-rule="evenodd" stroke="#000" stroke-dasharray="none" stroke-linecap="butt" stroke-linejoin="miter" stroke-miterlimit="4" stroke-opacity="1" stroke-width="8" d="M 57,114 92.537251,96.37996 114.2381,104.5442"/></g><g id="g4198"><path id="path5169" fill="#000" fill-rule="evenodd" stroke="none" stroke-dasharray="none" stroke-dashoffset="0" stroke-linecap="butt" stroke-linejoin="miter" stroke-miterlimit="4" stroke-opacity="1" stroke-width="1" d="m 193.30746,99.11132 13.52379,29.00185 0,0 22.23995,-28.02469 0,0 c -11.92124,-0.32575 -23.8425,-0.65145 -35.76374,-0.97716 z" color="#000" display="inline" enable-background="accumulate" overflow="visible" visibility="visible" style="marker:none"/><path id="path4194" fill="none" fill-rule="evenodd" stroke="#000" stroke-dasharray="none" stroke-linecap="butt" stroke-linejoin="miter" stroke-miterlimit="4" stroke-opacity="1" stroke-width="8" d="M 200.06935,113.61224 168,128 147,118"/></g><circle id="circle4226" cx="36.663" cy="180.445" r="16" fill="#00ff7f" fill-opacity="1" stroke="#000" stroke-dasharray="none" stroke-dashoffset="6" stroke-linecap="butt" stroke-linejoin="bevel" stroke-miterlimit="4" stroke-opacity="1" stroke-width="8" opacity=".98"/><circle id="circle4228" cx="219.874" cy="164.361" r="16" fill="#00ff7f" fill-opacity="1" stroke="#000" stroke-dasharray="none" stroke-dashoffset="6" stroke-linecap="butt" stroke-linejoin="bevel" stroke-miterlimit="4" stroke-opacity="1" stroke-width="8" opacity=".98"/></g></svg>