<svg xmlns="http://www.w3.org/2000/svg" xmlns:svg="http://www.w3.org/2000/svg" id="svg4295" width="256" height="256" version="1.1" viewBox="0 0 72.249 72.249"><metadata id="metadata4325"/><g id="g4229"><path id="path4184" fill="none" fill-rule="evenodd" stroke="#000" stroke-dasharray="4.516 2.258" stroke-dashoffset="0" stroke-linecap="butt" stroke-linejoin="miter" stroke-miterlimit="4" stroke-opacity="1" stroke-width="2.258" d="M 27.375557,44.02667 58.702226,20.320001"/><path id="path4192" fill="#00ff7f" fill-rule="evenodd" stroke="#000" stroke-dasharray="none" stroke-linecap="round" stroke-linejoin="miter" stroke-miterlimit="4" stroke-opacity="1" stroke-width="2.258" d="m 62.197531,17.565306 -10.257371,1.467558 6.185017,8.060471 4.072354,-9.528029"/><path id="path4201" fill="none" fill-rule="evenodd" stroke="#000" stroke-dasharray="none" stroke-linecap="butt" stroke-linejoin="miter" stroke-miterlimit="4" stroke-opacity="1" stroke-width="2.258" d="M 9.0311121,57.573337 27.375557,44.02667"/><g id="text4219" fill="#000" fill-opacity="1" stroke="none" stroke-linecap="butt" stroke-linejoin="miter" stroke-opacity="1" stroke-width="1" font-family="Times New Roman" font-size="33.867" font-stretch="normal" font-style="normal" font-variant="normal" font-weight="normal" letter-spacing="0" text-anchor="start" transform="matrix(0.79335334,-0.60876143,0.60876143,0.79335334,0,0)" word-spacing="0" writing-mode="lr-tb" style="line-height:125%;-inkscape-font-specification:'Times New Roman, Normal';text-align:start"><path id="path4227" d="m 4.4651268,30.876994 7.1272142,0 0,0.611849 q -0.677995,0 -0.959115,0.231511 -0.264583,0.23151 -0.264583,0.611849 0,0.396875 0.578776,1.223698 0.181901,0.264583 0.545703,0.826823 l 1.07487,1.719792 1.240234,-1.719792 q 1.190625,-1.63711 1.190625,-2.067058 0,-0.347265 -0.281119,-0.578776 -0.28112,-0.248047 -0.909506,-0.248047 l 0,-0.611849 5.126303,0 0,0.611849 q -0.810287,0.04961 -1.405599,0.446485 -0.810287,0.562239 -2.215886,2.447396 l -2.067057,2.761589 3.770312,5.423958 q 1.389063,2.000912 1.984376,2.414323 0.595312,0.396875 1.53789,0.446485 l 0,0.595312 -7.14375,0 0,-0.595312 q 0.744141,0 1.157552,-0.33073 0.314193,-0.23151 0.314193,-0.611849 0,-0.380338 -1.058334,-1.918229 l -2.215885,-3.241146 -2.4308597,3.241146 q -1.1244793,1.504818 -1.1244793,1.785938 0,0.396875 0.3638021,0.727604 0.3803386,0.314193 1.1244793,0.347266 l 0,0.595312 -4.9444014,0 0,-0.595312 Q 5.1761946,45.346396 5.622679,45.015667 6.2510644,44.53611 7.7393458,42.568271 L 10.914346,38.351474 8.037002,34.184286 Q 6.8133041,32.398349 6.1353092,31.951864 5.4738508,31.488843 4.4651268,31.488843 l 0,-0.611849 z"/></g></g></svg>